<?xml version="1.0" encoding="utf-8"?>
<!-- Generator: Adobe Illustrator 25.0.1, SVG Export Plug-In . SVG Version: 6.00 Build 0)  -->
<svg version="1.1" id="Capa_1" xmlns="http://www.w3.org/2000/svg" xmlns:xlink="http://www.w3.org/1999/xlink" x="0px" y="0px"
	 viewBox="0 0 170.6 64.8" style="enable-background:new 0 0 170.6 64.8;" xml:space="preserve">
<style type="text/css">
	.st0{fill:#09CA6C;}
	.st1{fill:#0076FF;}
	.st2{enable-background:new    ;}
</style>
<g id="Capa_1_1_">
	<path class="st0" d="M147.7,19.6v0.1h-0.1v13.7h-1.7V20.1c0-0.1,0-0.3,0-0.4s0-0.3,0-0.4c0-3.8-3-6.9-6.8-6.9c-3.6,0-6.6,3-6.8,6.4
		h-0.1v14.6h-1.7V12h1.7v2.1c1.7-2.1,4.1-3.4,6.9-3.4c4.6,0,8.4,3.6,8.6,8.2c0,0.1,0,0.3,0,0.3C147.7,19.4,147.7,19.5,147.7,19.6z
		 M116.7,11.2c6.2,0,11.1,4.9,11.1,11.1s-4.9,11.1-11.1,11.1s-11.1-4.9-11.1-11.1S110.4,11.2,116.7,11.2z M116.7,31.8
		c5.3,0,9.3-4.1,9.3-9.4s-4-9.4-9.3-9.4s-9.3,4.1-9.3,9.4S111.3,31.8,116.7,31.8z M92.7,11.2c6.1,0,10.8,4.9,10.8,11.2
		s-4.8,11.2-10.8,11.2c-3.8,0-7.2-1.9-8.9-4.9v18.9h-1.7V12h1.7v4.1C85.5,13.1,88.9,11.2,92.7,11.2z M92.7,31.9c5.1,0,9-4.2,9-9.4
		s-4-9.4-9-9.4c-5.1,0-8.9,4.1-8.9,9.4S87.6,31.9,92.7,31.9z M160.6,31.6c6.5,0.3,10,3.2,10,8.1c0,2.4-1.2,4.5-3.5,6
		c-2,1.3-4.7,2-7.6,2c-6.5,0-11.1-3.3-11.1-8.1c0-3.3,1.8-5.8,5-7c-1.6-0.6-2.5-1.9-2.5-3.7c0-1.7,1-2.9,2.2-3.6
		c-1.3-1.5-2.1-3.5-2.1-5.6c0-4.8,3.7-8.5,8.6-8.5c1,0,2.1,0.2,3.1,0.6V12l0.1-0.2l1.3,0.6c2.5,1.5,4.1,4.2,4.1,7.3
		c0,4.8-3.7,8.5-8.6,8.5c-1.8,0-3.6-0.6-5.1-1.6c-0.8,0.3-1.8,1-1.8,2.2c0,2,2,2.4,3.1,2.4L160.6,31.6z M159.5,45.9
		c6.4,0,9.3-3.2,9.3-6.1c0-4.8-4.5-5.9-8.3-6.3c-0.5,0-0.9,0-1.3,0c-3.3,0-5.8,0.7-7.3,2.2c-1.1,1-1.6,2.4-1.6,4
		C150.2,43.3,154,45.9,159.5,45.9z M159.6,26.5c3.8,0,6.7-3,6.7-6.8c0-3.9-2.9-6.8-6.7-6.8s-6.7,3-6.7,6.8
		C152.9,23.6,155.7,26.5,159.6,26.5z"/>
	<path class="st1" d="M15.6,0v5.4h-2.4c-2.4,0-3.5,1.5-3.5,4.6v1.7h4.5v4.5H9.7v16.9H4.1V16.2H0v-4.5h4.1V9.9C4.1,3.7,7.3,0,13.2,0
		H15.6z M30.7,11.7h5.6v21.4h-5.6v-3c-1.2,2.2-3.7,3.5-5.9,3.5c-5.2,0-8.4-3.3-8.4-9.2V11.7H22v11.7c0,3.3,1.8,4.8,4.1,4.8
		c2.6,0,4.6-1.5,4.6-5V11.7z M167.9,13c-1.2,0-2.2-1-2.2-2.2s1-2.2,2.2-2.2s2.2,1,2.2,2.2S169.1,13,167.9,13z M45.2,24.1
		c-5.5-1.5-6-4-6-6.6c0-1.7,0.8-3.2,2.4-4.5c1.5-1.3,3.4-1.9,5.6-1.9c2.2,0,4.2,0.6,5.8,1.7s2.5,2.8,2.6,5.1h-5.3
		c0-1.5-1.4-2.2-2.9-2.2c-1.8,0-2.7,0.7-2.7,2.1c0,0.8,0.7,1.4,2.2,1.8l3.6,0.9c4.9,1.3,5.6,4.7,5.6,6.4c0,2.1-0.9,3.7-2.6,4.9
		c-1.7,1.2-3.8,1.8-6.1,1.8c-2.2,0-4.3-0.6-6-1.9c-1.7-1.3-2.6-3.1-2.6-5.3H44c0.1,1.5,1.9,2.7,3.9,2.7c1.6,0,2.8-0.9,2.8-2.1
		c0-1.1-0.7-1.7-2.4-2L45.2,24.1z M70.7,28.5c1.7-0.4,3.3-1.4,4.1-2.8l4.8,1.2c-1.3,3.2-4.4,5.4-8.1,6.3c-3,0.7-5.8,0.3-8.4-1.2
		s-4.3-3.9-5.1-7.1s-0.4-6,1.2-8.6c1.6-2.5,3.9-4.2,6.9-4.9c3-0.8,5.8-0.4,8.3,1.1s4.2,3.9,4.9,7.1c0.2,0.6,0.3,1.2,0.4,1.9
		l-15.9,3.9C64.9,28.1,67.6,29.3,70.7,28.5z M62.9,21.8l10.7-2.6c-1.1-2.7-3.6-3.8-6.3-3.1C64.4,16.7,62.7,18.9,62.9,21.8z"/>
</g>
<g id="Texto">
	<g class="st2">
		<path class="st1" d="M6.3,53.2v1.1H4.1v7.2H2.7v-7.2H0.5v-1.1H6.3z"/>
		<path class="st1" d="M7.7,53.8c-0.2-0.2-0.3-0.4-0.3-0.6s0.1-0.5,0.3-0.6s0.4-0.3,0.6-0.3c0.2,0,0.4,0.1,0.6,0.3s0.3,0.4,0.3,0.6
			S9.1,53.6,9,53.8S8.6,54,8.4,54C8.1,54,7.9,54,7.7,53.8z M9,54.9v6.6H7.7v-6.6H9z"/>
		<path class="st1" d="M10.8,56.4c0.3-0.5,0.7-0.9,1.1-1.2s1-0.4,1.7-0.4c0.8,0,1.5,0.2,2,0.6c0.5,0.4,0.9,0.9,1.1,1.6h-1.5
			c-0.1-0.3-0.3-0.6-0.6-0.8c-0.3-0.2-0.6-0.3-1-0.3c-0.6,0-1,0.2-1.3,0.6c-0.3,0.4-0.5,0.9-0.5,1.7c0,0.7,0.2,1.3,0.5,1.7
			c0.3,0.4,0.8,0.6,1.3,0.6c0.8,0,1.3-0.3,1.6-1h1.5c-0.2,0.7-0.6,1.2-1.1,1.6c-0.5,0.4-1.2,0.6-2,0.6c-0.6,0-1.2-0.1-1.7-0.4
			c-0.5-0.3-0.9-0.7-1.1-1.2c-0.3-0.5-0.4-1.1-0.4-1.8C10.4,57.5,10.5,56.9,10.8,56.4z"/>
		<path class="st1" d="M20.7,58.2l3,3.3h-1.8l-2.4-2.8v2.8H18v-8.9h1.4v5.2l2.4-2.9h1.9L20.7,58.2z"/>
		<path class="st1" d="M30.7,58.7h-5.1c0,0.5,0.2,1,0.6,1.3c0.4,0.3,0.8,0.5,1.3,0.5c0.7,0,1.3-0.3,1.6-0.9h1.5
			c-0.2,0.6-0.6,1.1-1.1,1.5c-0.5,0.4-1.2,0.6-1.9,0.6c-0.6,0-1.2-0.1-1.7-0.4c-0.5-0.3-0.9-0.7-1.2-1.2c-0.3-0.5-0.4-1.1-0.4-1.8
			c0-0.7,0.1-1.3,0.4-1.8c0.3-0.5,0.7-0.9,1.2-1.2s1.1-0.4,1.7-0.4c0.6,0,1.2,0.1,1.7,0.4c0.5,0.3,0.9,0.7,1.1,1.1s0.4,1.1,0.4,1.7
			C30.7,58.3,30.7,58.5,30.7,58.7z M29.3,57.6c0-0.5-0.2-0.9-0.5-1.2C28.4,56.1,28,56,27.5,56c-0.5,0-0.9,0.2-1.2,0.5
			s-0.5,0.7-0.6,1.2H29.3z"/>
		<path class="st1" d="M33.7,56v3.7c0,0.2,0.1,0.4,0.2,0.5c0.1,0.1,0.3,0.2,0.6,0.2h0.8v1.1h-1.1c-0.6,0-1.1-0.1-1.4-0.4
			s-0.5-0.8-0.5-1.4V56h-0.8v-1.1h0.8v-1.6h1.4v1.6h1.6V56H33.7z"/>
		<path class="st1" d="M48.5,53.2v8.3h-1.4v-5.7l-2.5,5.7h-0.9L41,55.8v5.7h-1.4v-8.3h1.5l2.9,6.5l2.9-6.5H48.5z"/>
		<path class="st1" d="M50.2,56.4c0.3-0.5,0.7-0.9,1.1-1.2s1-0.4,1.6-0.4c0.5,0,1,0.1,1.4,0.3c0.4,0.2,0.7,0.5,0.9,0.8v-1h1.4v6.6
			h-1.4v-1c-0.2,0.3-0.5,0.6-0.9,0.8c-0.4,0.2-0.9,0.3-1.4,0.3c-0.6,0-1.1-0.1-1.6-0.4s-0.8-0.7-1.1-1.2c-0.3-0.5-0.4-1.1-0.4-1.8
			S49.9,57,50.2,56.4z M54.9,57c-0.2-0.3-0.4-0.6-0.7-0.8c-0.3-0.2-0.6-0.3-1-0.3s-0.7,0.1-1,0.3c-0.3,0.2-0.6,0.4-0.7,0.8
			s-0.3,0.7-0.3,1.2s0.1,0.9,0.3,1.2s0.4,0.6,0.7,0.8c0.3,0.2,0.6,0.3,1,0.3c0.4,0,0.7-0.1,1-0.3s0.5-0.4,0.7-0.8
			c0.2-0.3,0.3-0.7,0.3-1.2C55.2,57.8,55.1,57.4,54.9,57z"/>
		<path class="st1" d="M63.1,55.1c0.4,0.2,0.7,0.5,1,1c0.2,0.4,0.3,0.9,0.3,1.5v3.9h-1.4v-3.7c0-0.6-0.1-1-0.4-1.4
			c-0.3-0.3-0.7-0.5-1.2-0.5c-0.5,0-0.9,0.2-1.2,0.5c-0.3,0.3-0.4,0.8-0.4,1.4v3.7h-1.4v-6.6h1.4v0.8c0.2-0.3,0.5-0.5,0.9-0.6
			c0.3-0.2,0.7-0.2,1.1-0.2C62.2,54.8,62.7,54.9,63.1,55.1z"/>
		<path class="st1" d="M66.1,56.4c0.3-0.5,0.7-0.9,1.1-1.2s1-0.4,1.6-0.4c0.5,0,1,0.1,1.4,0.3c0.4,0.2,0.7,0.5,0.9,0.8v-1h1.4v6.6
			h-1.4v-1c-0.2,0.3-0.5,0.6-0.9,0.8c-0.4,0.2-0.9,0.3-1.4,0.3c-0.6,0-1.1-0.1-1.6-0.4s-0.8-0.7-1.1-1.2c-0.3-0.5-0.4-1.1-0.4-1.8
			S65.9,57,66.1,56.4z M70.9,57c-0.2-0.3-0.4-0.6-0.7-0.8c-0.3-0.2-0.6-0.3-1-0.3s-0.7,0.1-1,0.3c-0.3,0.2-0.6,0.4-0.7,0.8
			s-0.3,0.7-0.3,1.2s0.1,0.9,0.3,1.2s0.4,0.6,0.7,0.8c0.3,0.2,0.6,0.3,1,0.3c0.4,0,0.7-0.1,1-0.3s0.5-0.4,0.7-0.8
			c0.2-0.3,0.3-0.7,0.3-1.2C71.1,57.8,71,57.4,70.9,57z"/>
		<path class="st1" d="M78.3,55.1c0.4,0.2,0.7,0.5,0.9,0.8v-1h1.4v6.7c0,0.6-0.1,1.1-0.4,1.6c-0.3,0.5-0.6,0.8-1.1,1.1
			c-0.5,0.3-1.1,0.4-1.7,0.4c-0.9,0-1.6-0.2-2.2-0.6c-0.6-0.4-0.9-1-1-1.7h1.4c0.1,0.3,0.3,0.6,0.7,0.8c0.3,0.2,0.7,0.3,1.2,0.3
			c0.6,0,1-0.2,1.3-0.5c0.3-0.3,0.5-0.8,0.5-1.5v-1.1c-0.2,0.3-0.5,0.6-0.9,0.8s-0.8,0.3-1.4,0.3c-0.6,0-1.1-0.1-1.6-0.4
			s-0.9-0.7-1.1-1.2c-0.3-0.5-0.4-1.1-0.4-1.8s0.1-1.3,0.4-1.8c0.3-0.5,0.7-0.9,1.1-1.2s1-0.4,1.6-0.4
			C77.5,54.8,77.9,54.9,78.3,55.1z M79,57c-0.2-0.3-0.4-0.6-0.7-0.8c-0.3-0.2-0.6-0.3-1-0.3s-0.7,0.1-1,0.3
			c-0.3,0.2-0.6,0.4-0.7,0.8s-0.3,0.7-0.3,1.2s0.1,0.9,0.3,1.2s0.4,0.6,0.7,0.8c0.3,0.2,0.6,0.3,1,0.3c0.4,0,0.7-0.1,1-0.3
			s0.5-0.4,0.7-0.8c0.2-0.3,0.3-0.7,0.3-1.2C79.3,57.8,79.2,57.4,79,57z"/>
		<path class="st1" d="M88.5,58.7h-5.1c0,0.5,0.2,1,0.6,1.3c0.4,0.3,0.8,0.5,1.3,0.5c0.7,0,1.3-0.3,1.6-0.9h1.5
			c-0.2,0.6-0.6,1.1-1.1,1.5c-0.5,0.4-1.2,0.6-1.9,0.6c-0.6,0-1.2-0.1-1.7-0.4c-0.5-0.3-0.9-0.7-1.2-1.2c-0.3-0.5-0.4-1.1-0.4-1.8
			c0-0.7,0.1-1.3,0.4-1.8c0.3-0.5,0.7-0.9,1.2-1.2s1.1-0.4,1.7-0.4c0.6,0,1.2,0.1,1.7,0.4c0.5,0.3,0.9,0.7,1.1,1.1s0.4,1.1,0.4,1.7
			C88.5,58.3,88.5,58.5,88.5,58.7z M87.1,57.6c0-0.5-0.2-0.9-0.5-1.2c-0.4-0.3-0.8-0.5-1.3-0.5c-0.5,0-0.9,0.2-1.2,0.5
			s-0.5,0.7-0.6,1.2H87.1z"/>
		<path class="st1" d="M99.3,55.1c0.4,0.2,0.7,0.5,1,1c0.2,0.4,0.4,0.9,0.4,1.5v3.9h-1.4v-3.7c0-0.6-0.1-1-0.4-1.4
			c-0.3-0.3-0.7-0.5-1.2-0.5s-0.9,0.2-1.2,0.5c-0.3,0.3-0.5,0.8-0.5,1.4v3.7h-1.4v-3.7c0-0.6-0.1-1-0.4-1.4
			c-0.3-0.3-0.7-0.5-1.2-0.5s-0.9,0.2-1.2,0.5c-0.3,0.3-0.4,0.8-0.4,1.4v3.7h-1.4v-6.6h1.4v0.8c0.2-0.3,0.5-0.5,0.9-0.6
			c0.3-0.2,0.7-0.2,1.1-0.2c0.5,0,1,0.1,1.4,0.3c0.4,0.2,0.7,0.5,1,1c0.2-0.4,0.5-0.7,0.9-1c0.4-0.2,0.9-0.4,1.4-0.4
			C98.4,54.8,98.8,54.9,99.3,55.1z"/>
		<path class="st1" d="M108.3,58.7h-5.1c0,0.5,0.2,1,0.6,1.3c0.4,0.3,0.8,0.5,1.3,0.5c0.7,0,1.3-0.3,1.6-0.9h1.5
			c-0.2,0.6-0.6,1.1-1.1,1.5c-0.5,0.4-1.2,0.6-2,0.6c-0.6,0-1.2-0.1-1.7-0.4c-0.5-0.3-0.9-0.7-1.2-1.2c-0.3-0.5-0.4-1.1-0.4-1.8
			c0-0.7,0.1-1.3,0.4-1.8c0.3-0.5,0.7-0.9,1.2-1.2s1.1-0.4,1.7-0.4c0.6,0,1.2,0.1,1.7,0.4c0.5,0.3,0.9,0.7,1.1,1.1
			c0.3,0.5,0.4,1.1,0.4,1.7C108.4,58.3,108.4,58.5,108.3,58.7z M107,57.6c0-0.5-0.2-0.9-0.5-1.2c-0.4-0.3-0.8-0.5-1.3-0.5
			c-0.5,0-0.9,0.2-1.2,0.5s-0.5,0.7-0.6,1.2H107z"/>
		<path class="st1" d="M114.5,55.1c0.4,0.2,0.7,0.5,1,1c0.2,0.4,0.3,0.9,0.3,1.5v3.9h-1.4v-3.7c0-0.6-0.1-1-0.4-1.4
			c-0.3-0.3-0.7-0.5-1.2-0.5s-0.9,0.2-1.2,0.5c-0.3,0.3-0.5,0.8-0.5,1.4v3.7h-1.4v-6.6h1.4v0.8c0.2-0.3,0.5-0.5,0.9-0.6
			c0.3-0.2,0.7-0.2,1.1-0.2C113.6,54.8,114,54.9,114.5,55.1z"/>
		<path class="st1" d="M119.1,56v3.7c0,0.2,0.1,0.4,0.2,0.5c0.1,0.1,0.3,0.2,0.6,0.2h0.8v1.1h-1.1c-0.6,0-1.1-0.1-1.4-0.4
			s-0.5-0.8-0.5-1.4V56H117v-1.1h0.8v-1.6h1.4v1.6h1.6V56H119.1z"/>
	</g>
	<g class="st2">
		<path class="st0" d="M125.2,55.2c0.4-0.6,0.9-1.2,1.5-1.5c0.7-0.4,1.4-0.5,2.1-0.5c0.9,0,1.7,0.2,2.4,0.7c0.7,0.4,1.2,1.1,1.5,1.9
			h-1.6c-0.2-0.4-0.5-0.8-0.9-1c-0.4-0.2-0.8-0.3-1.3-0.3c-0.6,0-1,0.1-1.5,0.4c-0.4,0.2-0.8,0.6-1,1.1s-0.4,1-0.4,1.6
			c0,0.6,0.1,1.2,0.4,1.6c0.2,0.5,0.6,0.8,1,1.1c0.4,0.3,0.9,0.4,1.5,0.4c0.5,0,0.9-0.1,1.3-0.3c0.4-0.2,0.7-0.5,0.9-1h1.6
			c-0.3,0.8-0.8,1.4-1.5,1.8c-0.7,0.4-1.5,0.6-2.4,0.6c-0.8,0-1.5-0.2-2.1-0.5c-0.6-0.4-1.2-0.9-1.5-1.5c-0.4-0.6-0.6-1.4-0.6-2.2
			C124.6,56.5,124.8,55.8,125.2,55.2z"/>
		<path class="st0" d="M140.4,58.7h-5.1c0,0.5,0.2,1,0.6,1.3c0.4,0.3,0.8,0.5,1.3,0.5c0.7,0,1.3-0.3,1.6-0.9h1.5
			c-0.2,0.6-0.6,1.1-1.1,1.5c-0.5,0.4-1.2,0.6-2,0.6c-0.6,0-1.2-0.1-1.7-0.4c-0.5-0.3-0.9-0.7-1.2-1.2c-0.3-0.5-0.4-1.1-0.4-1.8
			c0-0.7,0.1-1.3,0.4-1.8c0.3-0.5,0.7-0.9,1.2-1.2s1.1-0.4,1.7-0.4c0.6,0,1.2,0.1,1.7,0.4c0.5,0.3,0.9,0.7,1.1,1.1
			c0.3,0.5,0.4,1.1,0.4,1.7C140.4,58.3,140.4,58.5,140.4,58.7z M139,57.6c0-0.5-0.2-0.9-0.5-1.2c-0.4-0.3-0.8-0.5-1.3-0.5
			c-0.5,0-0.9,0.2-1.2,0.5s-0.5,0.7-0.6,1.2H139z"/>
		<path class="st0" d="M146.5,55.1c0.4,0.2,0.7,0.5,1,1c0.2,0.4,0.3,0.9,0.3,1.5v3.9h-1.4v-3.7c0-0.6-0.1-1-0.4-1.4
			c-0.3-0.3-0.7-0.5-1.2-0.5s-0.9,0.2-1.2,0.5c-0.3,0.3-0.5,0.8-0.5,1.4v3.7h-1.4v-6.6h1.4v0.8c0.2-0.3,0.5-0.5,0.9-0.6
			c0.3-0.2,0.7-0.2,1.1-0.2C145.6,54.8,146.1,54.9,146.5,55.1z"/>
		<path class="st0" d="M151.2,56v3.7c0,0.2,0.1,0.4,0.2,0.5c0.1,0.1,0.3,0.2,0.6,0.2h0.8v1.1h-1.1c-0.6,0-1.1-0.1-1.4-0.4
			s-0.5-0.8-0.5-1.4V56H149v-1.1h0.8v-1.6h1.4v1.6h1.6V56H151.2z"/>
		<path class="st0" d="M160,58.7H155c0,0.5,0.2,1,0.6,1.3c0.4,0.3,0.8,0.5,1.3,0.5c0.7,0,1.3-0.3,1.6-0.9h1.5
			c-0.2,0.6-0.6,1.1-1.1,1.5c-0.5,0.4-1.2,0.6-1.9,0.6c-0.6,0-1.2-0.1-1.7-0.4c-0.5-0.3-0.9-0.7-1.2-1.2c-0.3-0.5-0.4-1.1-0.4-1.8
			c0-0.7,0.1-1.3,0.4-1.8c0.3-0.5,0.7-0.9,1.2-1.2s1.1-0.4,1.7-0.4c0.6,0,1.2,0.1,1.7,0.4c0.5,0.3,0.9,0.7,1.1,1.1
			c0.3,0.5,0.4,1.1,0.4,1.7C160.1,58.3,160.1,58.5,160,58.7z M158.7,57.6c0-0.5-0.2-0.9-0.5-1.2c-0.4-0.3-0.8-0.5-1.3-0.5
			c-0.5,0-0.9,0.2-1.2,0.5s-0.5,0.7-0.6,1.2H158.7z"/>
		<path class="st0" d="M163.6,55.1c0.3-0.2,0.7-0.3,1.2-0.3v1.4h-0.3c-0.5,0-0.9,0.1-1.2,0.4c-0.3,0.3-0.4,0.7-0.4,1.4v3.5h-1.4
			v-6.6h1.4v1C163,55.5,163.3,55.3,163.6,55.1z"/>
	</g>
</g>
</svg>
